<svg width="20.000000" height="20.000000" viewBox="0 0 20 20" fill="none" xmlns="http://www.w3.org/2000/svg" xmlns:xlink="http://www.w3.org/1999/xlink">
	<desc>
			Created with Pixso.
	</desc>
	<defs>
		<clipPath id="clip1_124">
			<rect width="20.000000" height="20.000000" fill="white" fill-opacity="0"/>
		</clipPath>
	</defs>
	<g clip-path="url(#clip1_124)">
		<path d="M17.46 6.4C17.46 6.53 17.46 6.73 17.46 6.86C17.46 11.86 13.66 17.6 6.73 17.6C4.6 17.6 2.6 17 0.93 15.93C1.2 15.93 1.53 16 1.86 16C3.66 16 5.26 15.4 6.53 14.4C4.86 14.4 3.46 13.26 3 11.8C3.2 11.86 3.46 11.86 3.73 11.86C4.06 11.86 4.4 11.8 4.73 11.73C3 11.33 1.66 9.8 1.66 8C1.66 8 1.66 8 1.66 7.93C2.2 8.2 2.73 8.4 3.4 8.4C2.4 7.73 1.73 6.6 1.73 5.26C1.73 4.6 1.93 3.93 2.26 3.4C4.13 5.66 6.93 7.2 10.06 7.33C10 7.06 10 6.8 10 6.46C10 4.4 11.66 2.66 13.8 2.66C14.86 2.66 15.86 3.13 16.53 3.86C17.4 3.66 18.2 3.4 18.93 2.93C18.66 3.8 18.06 4.53 17.26 5C17.93 4.93 18.66 4.73 19.33 4.46C18.79 5.2 18.2 5.86 17.46 6.4Z" fill="#000000" fill-opacity="1.000000" fill-rule="nonzero"/>
	</g>
</svg>
