<svg width="74.000000" height="74.000000" viewBox="0 0 74 74" fill="none" xmlns="http://www.w3.org/2000/svg" xmlns:xlink="http://www.w3.org/1999/xlink">
	<desc>
			Created with Pixso.
	</desc>
	<defs>
		<filter id="filter_1_48_dd" x="-10.000000" y="-10.000000" width="94.000000" height="94.000000" filterUnits="userSpaceOnUse" color-interpolation-filters="sRGB">
			<feFlood flood-opacity="0" result="BackgroundImageFix"/>
			<feColorMatrix in="SourceAlpha" type="matrix" values="0 0 0 0 0 0 0 0 0 0 0 0 0 0 0 0 0 0 127 0" result="hardAlpha"/>
			<feOffset dx="0" dy="0"/>
			<feGaussianBlur stdDeviation="0"/>
			<feComposite in2="hardAlpha" operator="out" k2="-1" k3="1"/>
			<feColorMatrix type="matrix" values="0 0 0 0 0.18039 0 0 0 0 0.61569 0 0 0 0 1 0 0 0 1 0"/>
			<feBlend mode="normal" in2="BackgroundImageFix" result="effect_dropShadow_1"/>
			<feBlend mode="normal" in="SourceGraphic" in2="effect_dropShadow_1" result="shape"/>
		</filter>
		<clipPath id="clip1_48">
			<rect id="IMAGE" rx="0.000000" width="84.000000" height="84.000000" transform="translate(-5.000000 -5.000000)" fill="white" fill-opacity="0"/>
		</clipPath>
	</defs>
	<g filter="url(#filter_1_48_dd)">
		<rect id="IMAGE" rx="0.000000" width="84.000000" height="84.000000" transform="translate(-5.000000 -5.000000)" fill="#69B9FF" fill-opacity="1.000000"/>
		<g clip-path="url(#clip1_48)">
			<path id="Vector" d="M55.8 8.79L18.2 8.79L-0.6 27.6L-0.6 55.8C-0.6 61.12 3.78 65.19 8.8 65.19L65.19 65.19C70.52 65.19 74.6 61.12 74.6 55.8L74.6 27.6L55.8 8.79ZM20.7 15.06L53.29 15.06L65.82 27.6L49.53 27.6C49.53 33.86 43.89 40.13 37 40.13C30.1 40.13 24.46 33.86 24.46 27.6L8.17 27.6L20.7 15.06ZM68.33 55.8C68.33 57.68 67.08 58.93 65.19 58.93L8.8 58.93C6.92 58.93 5.66 57.36 5.66 55.8L5.66 33.86L19.14 33.86C21.96 41.07 29.16 46.4 37 46.4C44.83 46.4 52.04 41.07 54.54 33.86L68.33 33.86L68.33 55.8Z" fill="#FFFFFF" fill-opacity="1.000000" fill-rule="evenodd"/>
		</g>
		<rect id="IMAGE" rx="0.000000" width="84.000000" height="84.000000" transform="translate(-5.000000 -5.000000)" stroke="#FFFFFF" stroke-opacity="1.000000" stroke-width="10.000000"/>
	</g>
</svg>
