<svg width="74.000000" height="74.000000" viewBox="0 0 74 74" fill="none" xmlns="http://www.w3.org/2000/svg" xmlns:xlink="http://www.w3.org/1999/xlink">
	<desc>
			Created with Pixso.
	</desc>
	<defs>
		<filter id="filter_1_40_dd" x="-10.000000" y="-10.000000" width="94.000000" height="94.000000" filterUnits="userSpaceOnUse" color-interpolation-filters="sRGB">
			<feFlood flood-opacity="0" result="BackgroundImageFix"/>
			<feColorMatrix in="SourceAlpha" type="matrix" values="0 0 0 0 0 0 0 0 0 0 0 0 0 0 0 0 0 0 127 0" result="hardAlpha"/>
			<feOffset dx="0" dy="0"/>
			<feGaussianBlur stdDeviation="0"/>
			<feComposite in2="hardAlpha" operator="out" k2="-1" k3="1"/>
			<feColorMatrix type="matrix" values="0 0 0 0 0.18039 0 0 0 0 0.61569 0 0 0 0 1 0 0 0 1 0"/>
			<feBlend mode="normal" in2="BackgroundImageFix" result="effect_dropShadow_1"/>
			<feBlend mode="normal" in="SourceGraphic" in2="effect_dropShadow_1" result="shape"/>
		</filter>
		<clipPath id="clip1_40">
			<rect id="IMAGE" rx="0.000000" width="84.000000" height="84.000000" transform="translate(-5.000000 -5.000000)" fill="white" fill-opacity="0"/>
		</clipPath>
	</defs>
	<g filter="url(#filter_1_40_dd)">
		<rect id="IMAGE" rx="0.000000" width="84.000000" height="84.000000" transform="translate(-5.000000 -5.000000)" fill="#69B9FF" fill-opacity="1.000000"/>
		<g clip-path="url(#clip1_40)">
			<path id="Vector" d="M30.73 5.66C28.85 5.66 27.6 6.91 27.6 8.79L27.6 23.21L7.85 3.47C6.6 2.21 4.72 2.21 3.47 3.47C2.21 4.72 2.21 6.6 3.47 7.85L23.21 27.6L8.79 27.6C6.91 27.6 5.66 28.85 5.66 30.73C5.66 32.61 6.91 33.86 8.79 33.86L30.73 33.86C32.61 33.86 33.86 32.3 33.86 30.73L33.86 8.79C33.86 6.91 32.3 5.66 30.73 5.66ZM70.52 66.14L50.78 46.4L65.19 46.4C67.08 46.4 68.33 45.14 68.33 43.26C68.33 41.38 67.08 40.13 65.19 40.13L43.26 40.13C41.38 40.13 40.13 41.7 40.13 43.26L40.13 65.19C40.13 67.08 41.38 68.33 43.26 68.33C45.14 68.33 46.4 67.08 46.4 65.19L46.4 50.78L66.14 70.52C67.39 71.78 69.27 71.78 70.52 70.52C71.78 69.27 71.78 67.39 70.52 66.14Z" fill="#FFFFFF" fill-opacity="1.000000" fill-rule="evenodd"/>
		</g>
		<rect id="IMAGE" rx="0.000000" width="84.000000" height="84.000000" transform="translate(-5.000000 -5.000000)" stroke="#FFFFFF" stroke-opacity="1.000000" stroke-width="10.000000"/>
	</g>
</svg>
