<svg width="74.000000" height="74.000000" viewBox="0 0 74 74" fill="none" xmlns="http://www.w3.org/2000/svg" xmlns:xlink="http://www.w3.org/1999/xlink">
	<desc>
			Created with Pixso.
	</desc>
	<defs>
		<filter id="filter_1_30_dd" x="-10.000000" y="-10.000000" width="94.000000" height="94.000000" filterUnits="userSpaceOnUse" color-interpolation-filters="sRGB">
			<feFlood flood-opacity="0" result="BackgroundImageFix"/>
			<feColorMatrix in="SourceAlpha" type="matrix" values="0 0 0 0 0 0 0 0 0 0 0 0 0 0 0 0 0 0 127 0" result="hardAlpha"/>
			<feOffset dx="0" dy="0"/>
			<feGaussianBlur stdDeviation="0"/>
			<feComposite in2="hardAlpha" operator="out" k2="-1" k3="1"/>
			<feColorMatrix type="matrix" values="0 0 0 0 0.18039 0 0 0 0 0.61569 0 0 0 0 1 0 0 0 1 0"/>
			<feBlend mode="normal" in2="BackgroundImageFix" result="effect_dropShadow_1"/>
			<feBlend mode="normal" in="SourceGraphic" in2="effect_dropShadow_1" result="shape"/>
		</filter>
		<clipPath id="clip1_30">
			<rect id="IMAGE" rx="0.000000" width="84.000000" height="84.000000" transform="translate(-5.000000 -5.000000)" fill="white" fill-opacity="0"/>
		</clipPath>
	</defs>
	<g filter="url(#filter_1_30_dd)">
		<rect id="IMAGE" rx="0.000000" width="84.000000" height="84.000000" transform="translate(-5.000000 -5.000000)" fill="#69B9FF" fill-opacity="1.000000"/>
		<g clip-path="url(#clip1_30)">
			<path id="Vector" d="M55.8 16L55.8 8.8C55.8 3.47 51.72 -0.6 46.4 -0.6L27.6 -0.6C22.27 -0.6 18.2 3.47 18.2 8.8L18.2 16C12.56 21.02 8.79 28.54 8.79 37C8.79 45.46 12.56 52.98 18.2 57.99L18.2 65.19C18.2 70.52 22.27 74.6 27.6 74.6L46.4 74.6C51.72 74.6 55.8 70.52 55.8 65.19L55.8 57.99C61.44 52.98 65.19 45.46 65.19 37C65.19 28.54 61.44 21.02 55.8 16ZM24.46 8.8C24.46 6.92 25.72 5.66 27.6 5.66L46.4 5.66C48.28 5.66 49.53 6.92 49.53 8.8L49.53 11.62C45.77 9.74 41.38 8.8 37 8.8C32.61 8.8 28.22 9.74 24.46 11.62L24.46 8.8ZM49.53 65.19C49.53 67.08 48.28 68.33 46.4 68.33L27.6 68.33C25.72 68.33 24.46 67.08 24.46 65.19L24.46 62.38C28.22 64.26 32.61 65.19 37 65.19C41.38 65.19 45.77 64.26 49.53 62.38L49.53 65.19ZM37 58.93C24.78 58.93 15.06 49.22 15.06 37C15.06 24.78 24.78 15.06 37 15.06C49.22 15.06 58.93 24.78 58.93 37C58.93 49.22 49.22 58.93 37 58.93ZM40.13 35.74L40.13 24.46C40.13 22.58 38.88 21.33 37 21.33C35.12 21.33 33.86 22.58 33.86 24.46L33.86 37C33.86 37.93 34.18 38.56 34.8 39.19L41.07 45.46C41.7 46.08 42.64 46.4 43.26 46.4C43.89 46.4 44.83 46.08 45.46 45.46C46.71 44.2 46.71 42.32 45.46 41.07L40.13 35.74Z" fill="#FFFFFF" fill-opacity="1.000000" fill-rule="evenodd"/>
		</g>
		<rect id="IMAGE" rx="0.000000" width="84.000000" height="84.000000" transform="translate(-5.000000 -5.000000)" stroke="#FFFFFF" stroke-opacity="1.000000" stroke-width="10.000000"/>
	</g>
</svg>
